# xmcd CD database file
#
# Track frame offsets:
#	150
#	16167
#	49567
#	75402
#	100945
#	127047
#	158407
#	184200
#	204687
#	220095
#
# Disc length: 3122 seconds
#
# Revision: 3
# Processed by: cddbd v1.5.2PL0 Copyright (c) Steve Scherf et al.
# Submitted via: CDex 1.51
#
DISCID=790c300a
DTITLE=Kin Ping Meh - Virtues and Sins
DYEAR=1974
DGENRE=Progressive Rock
TTITLE0=Good time Gracie
TTITLE1=You're a liar
TTITLE2=Night-time glider
TTITLE3=When summer's gone
TTITLE4=Whisky flyer
TTITLE5=Rich Kid Blues
TTITLE6=Living your lies
TTITLE7=Virtue and sin
TTITLE8=Me and I
TTITLE9=Blue Horizon
EXTD=YEAR: 1974
EXTT0=
EXTT1=
EXTT2=
EXTT3=
EXTT4=
EXTT5=
EXTT6=
EXTT7=
EXTT8=
EXTT9=
PLAYORDER=
